<svg xmlns="http://www.w3.org/2000/svg">

  <symbol id="icon-download" viewBox="0 0 19 16">
    <path fill="#5dc159" d="M9.25 1h3.5v7h2l-3.75 3.75L5.75 8h2v-7Z" />
  </symbol>

  <symbol id="icon-star-7" viewBox="0 0 16 16">
    <path fill="#c98eb6" fill-opacity="1" d="M42.562 3.408c.461-3.056 4.066-4.457 6.47-2.515l27.73 22.409a4 4 0 0 0 3.427.783l37.072-8.681c3.315-.777 6.022 2.68 4.474 5.713L105.676 52.58a4 4 0 0 0 .144 3.896l17.526 28.84c1.671 2.75-.424 6.248-3.637 6.072L81.44 89.296a4 4 0 0 0-3.076 1.196L51.553 117.88c-2.251 2.299-6.158 1.135-6.782-2.022l-6.553-33.106a4 4 0 0 0-2.525-2.97L2.602 67.423c-3.19-1.191-3.528-5.569-.558-7.235l33.203-18.634a4 4 0 0 0 1.998-2.892z"/>
  </symbol>

  <symbol id="icon-star-8-1" viewBox="0 0 16 16">
    <path fill="#2b8e9d" fill-opacity=".2" d="M47.702.828c2.702-2.061 6.58-.026 6.42 3.369l-.854 18.118a4 4 0 0 0 1.557 3.359l13.84 10.645c2.501 1.924 1.893 5.853-1.075 6.93l-17.763 6.448a4 4 0 0 0-2.406 2.425l-6.436 18.185c-1.105 3.12-5.306 3.625-7.118.855l-9.31-14.232a4 4 0 0 0-3.448-1.81l-17.001.427c-3.31.083-5.282-3.66-3.341-6.343l11.306-15.63a4 4 0 0 0 .629-3.357l-4.788-18.28c-.8-3.054 2.087-5.788 5.093-4.823l16.623 5.34a4 4 0 0 0 3.649-.628z"/>
  </symbol>

   <symbol id="icon-star-8-2" viewBox="0 0 16 16">
    <path fill="#c98eb6" fill-opacity=".2" d="M28.06 5.49c-.236-3.082 2.962-5.256 5.74-3.902l32.053 15.615a4 4 0 0 0 3.514-.005L103.546.419c3.056-1.5 6.47 1.261 5.642 4.564l-8.59 34.264a4 4 0 0 0 1.015 3.764l23.55 24.173c2.245 2.305.989 6.183-2.182 6.733l-37.762 6.548a4 4 0 0 0-2.73 1.856l-19.982 32.705c-1.678 2.746-5.746 2.488-7.063-.448L41.63 83.786a4 4 0 0 0-3.127-2.328L3.482 76.839c-3.376-.445-4.687-4.635-2.168-6.925L29.49 44.305a4 4 0 0 0 1.298-3.266z"/>

  <symbol id="icon-star-9" viewBox="0 0 16 16">
    <path fill="#c98eb6" fill-opacity=".2" d="M17.08 4.846C16.843 1.765 20.042-.41 22.82.944L41.368 9.98a4 4 0 0 0 3.514-.005L64.347.419c3.056-1.5 6.47 1.261 5.643 4.564l-4.807 19.174a4 4 0 0 0 1.014 3.764L79.504 41.58c2.246 2.305.99 6.182-2.181 6.732l-21.92 3.801a4 4 0 0 0-2.73 1.856L41.074 72.953c-1.677 2.746-5.746 2.487-7.063-.448l-7.805-17.4a4 4 0 0 0-3.127-2.328L3.482 50.193c-3.376-.445-4.688-4.636-2.168-6.926L17.36 28.683a4 4 0 0 0 1.298-3.266z"/>
  </symbol>

  <symbol id="icon-star-10" viewBox="0 0 16 16">
    <path fill="#46d9ef" fill-opacity=".5" d="M113.089.63c2.606-1.656 6.025.138 6.143 3.223l1.884 49.35a4 4 0 0 0 1.661 3.095l43.129 31.025c2.766 1.99 1.936 6.306-1.37 7.129l-48.086 11.962a4 4 0 0 0-2.847 2.671l-14.264 44.913c-.974 3.066-4.985 3.787-6.965 1.252l-32.682-41.845a4 4 0 0 0-2.917-1.531L3.77 108.759c-3.211-.189-4.897-3.899-2.928-6.443l28.853-37.258a4 4 0 0 0 .58-3.86l-17.48-46.366c-1.202-3.189 1.878-6.324 5.088-5.178l50.036 17.86a4 4 0 0 0 3.49-.392z"/>
  </symbol>

  <symbol id="icon-star-11" viewBox="0 0 16 16">
   <path fill="#2b8e9d" fill-opacity=".2" d="M87.918.669c2.628-1.737 6.14.106 6.204 3.255l.77 37.515a4 4 0 0 0 1.644 3.151l31.72 23.1c2.715 1.978 1.932 6.218-1.31 7.095l-36.044 9.758a4 4 0 0 0-2.758 2.624l-11.212 34.465c-1 3.075-5.045 3.754-6.995 1.175L46.192 91.399a4 4 0 0 0-3.018-1.584L3.834 88.122c-3.23-.139-4.969-3.853-3.007-6.423l21.99-28.81a4 4 0 0 0 .591-3.76L10.956 13.923c-1.12-3.166 1.925-6.22 5.094-5.11L53.083 21.79a4 4 0 0 0 3.528-.437z"/>

   <symbol id="icon-star-12" viewBox="0 0 16 16">
   <path fill="#2b8e9d" fill-opacity=".2" d="M47.702.828c2.702-2.061 6.58-.026 6.42 3.369l-.854 18.118a4 4 0 0 0 1.557 3.359l13.84 10.645c2.501 1.924 1.893 5.853-1.075 6.93l-17.763 6.448a4 4 0 0 0-2.406 2.425l-6.436 18.185c-1.105 3.12-5.306 3.625-7.118.855l-9.31-14.232a4 4 0 0 0-3.448-1.81l-17.001.427c-3.31.083-5.282-3.66-3.341-6.343l11.306-15.63a4 4 0 0 0 .629-3.357l-4.788-18.28c-.8-3.054 2.087-5.788 5.093-4.823l16.623 5.34a4 4 0 0 0 3.649-.628z"/>
  </symbol>

   <symbol id="icon-star-13" viewBox="0 0 16 16">
   <path fill="#c98eb6" fill-opacity=".5" d="M7.014 4.44C6.896 1.48 9.922-.577 12.63.622l6.038 2.673a4 4 0 0 0 3.422-.087L27.573.441c3.127-1.58 6.63 1.34 5.639 4.702l-1.198 4.06a4 4 0 0 0 1.014 3.964l3.168 3.157c2.26 2.251 1.104 6.112-2.02 6.752l-7.485 1.533a4 4 0 0 0-2.545 1.73l-4.18 6.395c-1.744 2.67-5.759 2.324-7.021-.605l-1.77-4.107a4 4 0 0 0-3.313-2.4l-4.216-.381c-3.49-.315-4.917-4.646-2.298-6.974l4.59-4.08a4 4 0 0 0 1.34-3.15z"/>
  </symbol>

   <symbol id="icon-star-14" viewBox="0 0 16 16">
   <path fill="#c98eb6" fill-opacity=".5" d="M6.507 4.288C6.29 1.227 9.46-.928 12.227.4l5.526 2.651a4 4 0 0 0 3.5-.019L26.472.458c3.068-1.514 6.497 1.273 5.642 4.586L30.97 9.481a4 4 0 0 0 1.015 3.797l3.325 3.396c2.247 2.296 1.008 6.171-2.155 6.736l-6.683 1.194a4 4 0 0 0-2.7 1.835l-3.568 5.775c-1.69 2.733-5.748 2.46-7.056-.474l-1.936-4.342a4 4 0 0 0-3.157-2.34l-4.546-.568c-3.395-.424-4.725-4.638-2.19-6.935l4.315-3.906a4 4 0 0 0 1.305-3.247z"/>
   </symbol>

   <symbol id="icon-star-15" viewBox="0 0 16 16">
  <path fill="#c98eb6" fill-opacity=".2" d="M17.08 4.846C16.843 1.765 20.042-.41 22.82.944L41.368 9.98a4 4 0 0 0 3.514-.005L64.347.419c3.056-1.5 6.47 1.261 5.643 4.564l-4.807 19.174a4 4 0 0 0 1.014 3.764L79.504 41.58c2.246 2.305.99 6.182-2.181 6.732l-21.92 3.801a4 4 0 0 0-2.73 1.856L41.074 72.953c-1.677 2.746-5.746 2.487-7.063-.448l-7.805-17.4a4 4 0 0 0-3.127-2.328L3.482 50.193c-3.376-.445-4.688-4.636-2.168-6.926L17.36 28.683a4 4 0 0 0 1.298-3.266z"/>
  </symbol>

</svg>
