<svg width="127" height="117" fill="none" viewBox="0 0 127 117"><path fill="#c98eb6" fill-opacity=".2" d="M28.06 5.49c-.236-3.082 2.962-5.256 5.74-3.902l32.053 15.615a4 4 0 0 0 3.514-.005L103.546.419c3.056-1.5 6.47 1.261 5.642 4.564l-8.59 34.264a4 4 0 0 0 1.015 3.764l23.55 24.173c2.245 2.305.989 6.183-2.182 6.733l-37.762 6.548a4 4 0 0 0-2.73 1.856l-19.982 32.705c-1.678 2.746-5.746 2.488-7.063-.448L41.63 83.786a4 4 0 0 0-3.127-2.328L3.482 76.839c-3.376-.445-4.687-4.635-2.168-6.925L29.49 44.305a4 4 0 0 0 1.298-3.266z"/></svg>