<svg xmlns="http://www.w3.org/2000/svg" width="168" height="155" fill="none" viewBox="0 0 168 155"><path fill="#46d9ef" fill-opacity=".5" d="M113.089.63c2.606-1.656 6.025.138 6.143 3.223l1.884 49.35a4 4 0 0 0 1.661 3.095l43.129 31.025c2.766 1.99 1.936 6.306-1.37 7.129l-48.086 11.962a4 4 0 0 0-2.847 2.671l-14.264 44.913c-.974 3.066-4.985 3.787-6.965 1.252l-32.682-41.845a4 4 0 0 0-2.917-1.531L3.77 108.759c-3.211-.189-4.897-3.899-2.928-6.443l28.853-37.258a4 4 0 0 0 .58-3.86l-17.48-46.366c-1.202-3.189 1.878-6.324 5.088-5.178l50.036 17.86a4 4 0 0 0 3.49-.392z"/></svg>