<svg aria-hidden="true" style="position: absolute; width: 0; height: 0; overflow: hidden;" version="1.1"
  xmlns="http://www.w3.org/2000/svg"
  xmlns:xlink="http://www.w3.org/1999/xlink">
  <defs>
    <symbol id="icon-bi_people-fill" viewBox="0 0 32 32">
      <path fill="#fff" style="fill: var(--color1, #fff)" d="M14 28c0 0-2 0-2-2s2-8 10-8c8 0 10 6 10 8s-2 2-2 2h-16zM22 16c1.591 0 3.117-0.632 4.243-1.757s1.757-2.651 1.757-4.243c0-1.591-0.632-3.117-1.757-4.243s-2.651-1.757-4.243-1.757c-1.591 0-3.117 0.632-4.243 1.757s-1.757 2.651-1.757 4.243 0.632 3.117 1.757 4.243c1.125 1.125 2.651 1.757 4.243 1.757zM10.432 28c-0.296-0.624-0.444-1.309-0.432-2 0-2.71 1.36-5.5 3.872-7.44-1.254-0.387-2.56-0.576-3.872-0.56-8 0-10 6-10 8s2 2 2 2h8.432zM9 16c1.326 0 2.598-0.527 3.536-1.464s1.464-2.209 1.464-3.536c0-1.326-0.527-2.598-1.464-3.536s-2.209-1.464-3.536-1.464c-1.326 0-2.598 0.527-3.536 1.464s-1.464 2.209-1.464 3.536c0 1.326 0.527 2.598 1.464 3.536s2.209 1.464 3.536 1.464z"></path>
    </symbol>
    <symbol id="icon-Playstore" viewBox="0 0 32 32">
      <path fill="#ea4335" style="fill: var(--color2, #ea4335)" d="M14.941 15.282l-14.804 14.059c0.001 0.002 0.001 0.006 0.003 0.009 0.455 1.527 2.012 2.65 3.861 2.65 0.74 0 1.434-0.179 2.029-0.493l0.047-0.025 16.663-8.603-7.799-7.597z"></path>
      <path fill="#fbbc04" style="fill: var(--color3, #fbbc04)" d="M29.917 12.888l-0.014-0.009-7.194-3.731-8.105 6.453 8.134 7.276 7.155-3.694c1.254-0.607 2.107-1.79 2.107-3.154 0-1.356-0.84-2.533-2.083-3.141z"></path>
      <path fill="#4285f4" style="fill: var(--color4, #4285f4)" d="M0.136 2.658c-0.089 0.294-0.136 0.602-0.136 0.921v24.843c0 0.319 0.047 0.627 0.138 0.92l15.312-13.7-15.313-12.984z"></path>
      <path fill="#34a853" style="fill: var(--color5, #34a853)" d="M15.050 16l7.661-6.854-16.644-8.634c-0.605-0.325-1.311-0.511-2.066-0.511-1.849 0-3.409 1.126-3.864 2.654 0 0.001-0.001 0.002-0.001 0.004l14.914 13.342z"></path>
    </symbol>
    <symbol id="icon-Polygon-4" viewBox="0 0 29 32">
      <path fill="#fbbc04" style="fill: var(--color3, #fbbc04)" d="M21.134 10.553c3.472 2.113 3.472 7.153 0 9.266l-9.094 5.536c-3.614 2.2-8.244-0.402-8.244-4.633v-11.071c0-4.231 4.629-6.833 8.244-4.633l9.094 5.536z"></path>
    </symbol>
    <symbol id="icon-Polygon-5" viewBox="0 0 30 32">
      <path fill="#fbbc04" style="fill: var(--color3, #fbbc04)" d="M7.611 19.819c-3.472-2.113-3.472-7.153 0-9.266l9.094-5.536c3.614-2.2 8.244 0.402 8.244 4.633v11.071c0 4.231-4.629 6.833-8.244 4.633l-9.094-5.535z"></path>
    </symbol>
    <symbol id="icon-solar_heart-bold" viewBox="0 0 32 32">
      <path fill="#e34848" style="fill: var(--color6, #e34848)" d="M2.667 12.183c0 6.484 5.36 9.939 9.283 13.032 1.384 1.091 2.717 2.119 4.051 2.119s2.667-1.027 4.051-2.12c3.924-3.091 9.283-6.547 9.283-13.029s-7.333-11.084-13.333-4.849c-6-6.235-13.333-1.636-13.333 4.848z"></path>
    </symbol>
    <symbol id="icon-Star-1" viewBox="0 0 32 32">
      <path fill="#fdc403" style="fill: var(--color7, #fdc403); stroke: var(--color7, #fdc403)" stroke="#fdc403" stroke-linejoin="miter" stroke-linecap="butt" stroke-miterlimit="4" stroke-width="1.5238" d="M14.724 1.152c0.291-0.52 1.040-0.52 1.33 0l4.003 7.173c0.316 0.567 0.859 0.972 1.493 1.115l7.872 1.78c0.559 0.127 0.783 0.802 0.411 1.238l-5.434 6.345c-0.404 0.472-0.599 1.090-0.539 1.708l0.815 8.4c0.057 0.585-0.542 1.011-1.076 0.766l-7.255-3.336c-0.606-0.279-1.305-0.279-1.911 0l-7.254 3.336c-0.534 0.245-1.133-0.182-1.076-0.766l0.815-8.4c0.060-0.619-0.134-1.236-0.539-1.708l-5.435-6.345c-0.373-0.436-0.148-1.111 0.411-1.238l7.872-1.78c0.633-0.143 1.176-0.548 1.493-1.115l4.003-7.173z"></path>
    </symbol>
    <symbol id="icon-Star-5" viewBox="0 0 34 32">
      <path fill="#959090" style="fill: var(--color8, #959090)" d="M16.387 0l4.882 10.512 11.506 1.394-8.489 7.891 2.229 11.373-10.128-5.635-10.128 5.635 2.229-11.373-8.489-7.891 11.506-1.394 4.882-10.512z"></path>
    </symbol>
    <symbol id="icon-Vector" viewBox="0 0 32 32">
      <path stroke-linejoin="miter" stroke-linecap="round" stroke-miterlimit="4" stroke-width="3.2" d="M16 1.6v28.8M30.4 16h-28.8"></path>
    </symbol>

  </defs>
</svg>
