<svg xmlns="http://www.w3.org/2000/svg" width="38" height="35" fill="none" viewBox="0 0 38 35"><path fill="#c98eb6" fill-opacity=".5" d="M7.014 4.44C6.896 1.48 9.922-.577 12.63.622l6.038 2.673a4 4 0 0 0 3.422-.087L27.573.441c3.127-1.58 6.63 1.34 5.639 4.702l-1.198 4.06a4 4 0 0 0 1.014 3.964l3.168 3.157c2.26 2.251 1.104 6.112-2.02 6.752l-7.485 1.533a4 4 0 0 0-2.545 1.73l-4.18 6.395c-1.744 2.67-5.759 2.324-7.021-.605l-1.77-4.107a4 4 0 0 0-3.313-2.4l-4.216-.381c-3.49-.315-4.917-4.646-2.298-6.974l4.59-4.08a4 4 0 0 0 1.34-3.15z"/></svg>