<svg width="37" height="35" fill="none" viewBox="0 0 37 35"><path fill="#c98eb6" fill-opacity=".5" d="M6.507 4.288C6.29 1.227 9.46-.928 12.227.4l5.526 2.651a4 4 0 0 0 3.5-.019L26.472.458c3.068-1.514 6.497 1.273 5.642 4.586L30.97 9.481a4 4 0 0 0 1.015 3.797l3.325 3.396c2.247 2.296 1.008 6.171-2.155 6.736l-6.683 1.194a4 4 0 0 0-2.7 1.835l-3.568 5.775c-1.69 2.733-5.748 2.46-7.056-.474l-1.936-4.342a4 4 0 0 0-3.157-2.34l-4.546-.568c-3.395-.424-4.725-4.638-2.19-6.935l4.315-3.906a4 4 0 0 0 1.305-3.247z"/></svg>