<svg width="71" height="73" viewBox="0 0 71 73" fill="none" xmlns="http://www.w3.org/2000/svg">
<path d="M47.7015 0.827811C50.404 -1.23301 54.2827 0.802164 54.1225 4.19701L53.2679 22.3147C53.2063 23.6216 53.7877 24.8761 54.8248 25.6738L68.6642 36.3188C71.1664 38.2434 70.5576 42.1723 67.5902 43.2493L49.8272 49.6967C48.7029 50.1048 47.8203 50.9946 47.4212 52.1221L40.985 70.3068C39.8804 73.4277 35.6791 73.9324 33.8668 71.1619L24.5568 56.9299C23.7984 55.7706 22.4941 55.0862 21.1092 55.1209L4.10796 55.547C0.798385 55.63 -1.17358 51.8861 0.76685 49.2038L12.0733 33.5745C12.7743 32.6054 13.0049 31.3735 12.7018 30.2165L7.91379 11.9362C7.11393 8.8825 10.0009 6.14901 13.0065 7.11436L29.6299 12.4537C30.8756 12.8538 32.2382 12.6194 33.2786 11.826L47.7015 0.827811Z" fill="#2B8E9D" fill-opacity="0.2"/>
</svg>
