<svg xmlns="http://www.w3.org/2000/svg" width="124" height="120" fill="none" viewBox="0 0 124 120"><path fill="#c98eb6" fill-opacity=".2" d="M42.562 3.408c.461-3.056 4.066-4.457 6.47-2.515l27.73 22.409a4 4 0 0 0 3.427.783l37.072-8.681c3.315-.777 6.022 2.68 4.474 5.713L105.676 52.58a4 4 0 0 0 .144 3.896l17.526 28.84c1.671 2.75-.424 6.248-3.637 6.072L81.44 89.296a4 4 0 0 0-3.076 1.196L51.553 117.88c-2.251 2.299-6.158 1.135-6.782-2.022l-6.553-33.106a4 4 0 0 0-2.525-2.97L2.602 67.423c-3.19-1.191-3.528-5.569-.558-7.235l33.203-18.634a4 4 0 0 0 1.998-2.892z"/></svg>