<svg width="81" height="75" fill="none" viewBox="0 0 81 75"><path fill="#c98eb6" fill-opacity=".2" d="M17.08 4.846C16.843 1.765 20.042-.41 22.82.944L41.368 9.98a4 4 0 0 0 3.514-.005L64.347.419c3.056-1.5 6.47 1.261 5.643 4.564l-4.807 19.174a4 4 0 0 0 1.014 3.764L79.504 41.58c2.246 2.305.99 6.182-2.181 6.732l-21.92 3.801a4 4 0 0 0-2.73 1.856L41.074 72.953c-1.677 2.746-5.746 2.487-7.063-.448l-7.805-17.4a4 4 0 0 0-3.127-2.328L3.482 50.193c-3.376-.445-4.688-4.636-2.168-6.926L17.36 28.683a4 4 0 0 0 1.298-3.266z"/></svg>