<svg width="71" height="73" fill="none" viewBox="0 0 71 73"><path fill="#2b8e9d" fill-opacity=".2" d="M47.702.828c2.702-2.061 6.58-.026 6.42 3.369l-.854 18.118a4 4 0 0 0 1.557 3.359l13.84 10.645c2.501 1.924 1.893 5.853-1.075 6.93l-17.763 6.448a4 4 0 0 0-2.406 2.425l-6.436 18.185c-1.105 3.12-5.306 3.625-7.118.855l-9.31-14.232a4 4 0 0 0-3.448-1.81l-17.001.427c-3.31.083-5.282-3.66-3.341-6.343l11.306-15.63a4 4 0 0 0 .629-3.357l-4.788-18.28c-.8-3.054 2.087-5.788 5.093-4.823l16.623 5.34a4 4 0 0 0 3.649-.628z"/></svg>