<svg width="130" height="125" fill="none" viewBox="0 0 130 125"><path fill="#2b8e9d" fill-opacity=".2" d="M87.918.669c2.628-1.737 6.14.106 6.204 3.255l.77 37.515a4 4 0 0 0 1.644 3.151l31.72 23.1c2.715 1.978 1.932 6.218-1.31 7.095l-36.044 9.758a4 4 0 0 0-2.758 2.624l-11.212 34.465c-1 3.075-5.045 3.754-6.995 1.175L46.192 91.399a4 4 0 0 0-3.018-1.584L3.834 88.122c-3.23-.139-4.969-3.853-3.007-6.423l21.99-28.81a4 4 0 0 0 .591-3.76L10.956 13.923c-1.12-3.166 1.925-6.22 5.094-5.11L53.083 21.79a4 4 0 0 0 3.528-.437z"/></svg>